<svg id="Layer_1" data-name="Layer 1" xmlns="http://www.w3.org/2000/svg" viewBox="0 0 27 27"><defs><style>.cls-1{fill:#d9d8d6;}.cls-2{fill:#221c35;fill-rule:evenodd;}</style></defs><circle id="Oval-Copy-3" class="cls-1" cx="13.5" cy="13.5" r="13.5"/><g id="Group-3-Copy"><path id="Fill-12" class="cls-2" d="M20.25,18.69h-2.8v-4.1c0-1.1-.5-1.9-1.4-1.9a1.44,1.44,0,0,0-1.4,1v5h-2.8v-7.9h2.8V12c.1-.6,1-1.3,2.4-1.3,1.8,0,3.1,1.1,3.1,3.6v4.4Zm-11.2-9h0a1.38,1.38,0,0,1-1.5-1.3A1.39,1.39,0,0,1,9.05,7a1.39,1.39,0,0,1,1.5,1.4,1.38,1.38,0,0,1-1.5,1.3Zm-1.2,9h2.5v-8H7.85Z"/></g></svg>