<?xml version="1.0" encoding="utf-8"?>
<!-- Generator: Adobe Illustrator 20.1.0, SVG Export Plug-In . SVG Version: 6.00 Build 0)  -->
<svg version="1.1" id="Layer_1" xmlns="http://www.w3.org/2000/svg" xmlns:xlink="http://www.w3.org/1999/xlink" x="0px" y="0px"
	 viewBox="0 0 41 41" style="enable-background:new 0 0 41 41;" xml:space="preserve">
<style type="text/css">
	.st0{opacity:0.22;}
	.st1{fill:#DBD9D6;}
	.st2{fill:#231C34;}
</style>
<g>
	<path class="st1" d="M20.5,40.1c10.8,0,19.6-8.8,19.6-19.6c0-10.8-8.8-19.6-19.6-19.6C9.7,0.9,0.9,9.7,0.9,20.5
		C0.9,31.3,9.7,40.1,20.5,40.1"/>
	<path class="st2" d="M15.8,17.2h2v-2c0-0.9,0-2.2,0.7-3c0.7-0.9,1.6-1.5,3.1-1.5c2.6,0,3.6,0.4,3.6,0.4l-0.5,3c0,0-0.8-0.2-1.6-0.2
		c-0.8,0-1.5,0.3-1.5,1.1v2.3h3.2l-0.2,2.9h-3v10.2h-3.8V20.1h-2V17.2z"/>
</g>
</svg>
