<?xml version="1.0" encoding="utf-8"?>
<!-- Generator: Adobe Illustrator 20.1.0, SVG Export Plug-In . SVG Version: 6.00 Build 0)  -->
<svg version="1.1" id="Layer_1" xmlns="http://www.w3.org/2000/svg" xmlns:xlink="http://www.w3.org/1999/xlink" x="0px" y="0px"
	 viewBox="0 0 149 313" style="enable-background:new 0 0 149 313;" xml:space="preserve">
<style type="text/css">
	.st0{opacity:0.22;}
	.st1{fill:#DBD9D6;}
	.st2{fill:#231C34;}
</style>
<g class="st0">
	<path class="st1" d="M122.7,146.3c0,0,5.9-35.6,5.4-43.1c-0.8-12.3-19.7-11.7-19.2,1.4C109.2,112,122.7,146.3,122.7,146.3z"/>
	<g>
		<path class="st1" d="M52.6,147.7c24.7,0,48.1,5.5,59.7,8.8c-18.3,5.7-36.6,8.8-54.5,8.8c-24.9,0-43-5.6-51.2-8.8
			C19.3,150.8,34.7,147.7,52.6,147.7 M52.6,145.1c-17.8,0-36.4,2.8-52.1,11.4c0,0,21.7,11.4,57.3,11.4c17.8,0,39.1-2.8,63-11.4
			C120.7,156.5,88.2,145.1,52.6,145.1L52.6,145.1z"/>
		<path class="st1" d="M69.1,176.5c-0.1,0-0.2,0-0.3,0c-23.6,0.5-35.4,39.6-35,39.6l0,0c42-6.4,67.5-32.5,79.3-48
			c-12.2,17.2-36.9,48-61.8,53c-34.9,7-35,91.6-35,91.6c84.4-72.7,104.5-156.3,104.5-156.3S86.3,175.5,69.1,176.5z M37.4,212.9
			c3.5-9.7,14.5-33.4,31.4-33.8l0.3,0c0,0,0,0,0,0c0,0,0.1,0,0.1,0c12.4-0.7,32.6-10,44.1-15.8C103.5,177.2,79,205.1,37.4,212.9z
			 M97.8,206.3C84.1,232.5,59.5,270.8,19,306.9c0.3-7.7,1.3-22.1,4.2-36.8c3.9-19.3,12-43,28.6-46.4c24.2-4.9,47.8-32.5,60.8-50.4
			C109.3,181.9,104.5,193.3,97.8,206.3z"/>
		<path class="st1" d="M16.2,0.2c0,0-15.5,69.7,32.2,85.5c19,6.3,42.5,32.4,57.4,51c-14.3-16.3-39-38.5-74.2-49.7
			c0,0-0.6,39.7,19.8,42.3c28.3,3.5,69.2,27.2,69.2,27.2S100.7,72.9,16.2,0.2z M49.3,83.3C30.5,77.1,19.7,61.5,17,36.9
			C15.6,23.8,17,11.5,18,5.2C59.1,41.6,84,80.3,97.8,106.7c7.5,14.4,12.5,26.7,15.7,35.6C99.3,123.6,71.6,90.7,49.3,83.3z
			 M97.9,141.9c-18.5-8.6-34-13.6-46-15.1c-7.3-0.9-12.4-7.6-15.3-20c-1.5-6.2-2-12.3-2.1-16.1c41,14.2,67.1,43.7,78.1,58.4
			C108.5,147,103.5,144.4,97.9,141.9z"/>
		<path class="st1" d="M128.7,199.3c-7.1-31.4-3.6-64.6,8.8-84.5c0.4-0.6,1.2-0.8,1.8-0.4c0.6,0.4,0.8,1.2,0.4,1.8
			c-12.1,19.3-16.2,48-9.3,78.8L128.7,199.3z"/>
		<circle class="st1" cx="141.6" cy="112.5" r="6.9"/>
	</g>
</g>
</svg>
