<svg id="Layer_1" data-name="Layer 1" xmlns="http://www.w3.org/2000/svg" viewBox="0 0 27 27"><defs><style>.cls-1{fill:#d9d8d6;}.cls-2{fill:#221c35;}</style></defs><circle id="Oval-Copy-3" class="cls-1" cx="13.5" cy="13.5" r="13.5"/><path class="cls-2" d="M10.23,5.72h6.54a4.51,4.51,0,0,1,4.51,4.51v6.54a4.51,4.51,0,0,1-4.51,4.51H10.23a4.51,4.51,0,0,1-4.51-4.51V10.23a4.51,4.51,0,0,1,4.51-4.51m-.15,1.56a2.8,2.8,0,0,0-2.8,2.8h0v6.84a2.8,2.8,0,0,0,2.8,2.8h6.84a2.8,2.8,0,0,0,2.8-2.8h0V10.08a2.8,2.8,0,0,0-2.8-2.8H10.08m7.5,1.16a1,1,0,1,1-1,1,1,1,0,0,1,1-1M13.5,9.61A3.89,3.89,0,1,1,9.61,13.5,3.89,3.89,0,0,1,13.5,9.61m0,1.56a2.33,2.33,0,1,0,2.33,2.33A2.33,2.33,0,0,0,13.5,11.17Z"/></svg>