<?xml version="1.0" encoding="utf-8"?>
<!-- Generator: Adobe Illustrator 20.1.0, SVG Export Plug-In . SVG Version: 6.00 Build 0)  -->
<svg version="1.1" id="Layer_1" xmlns="http://www.w3.org/2000/svg" xmlns:xlink="http://www.w3.org/1999/xlink" x="0px" y="0px"
	 viewBox="0 0 318 109" style="enable-background:new 0 0 318 109;" xml:space="preserve">
<style type="text/css">
	.st0{opacity:0.22;}
	.st1{fill:#DBD9D6;}
	.st2{fill:#231C34;}
</style>
<g>
	<g>
		<path class="st2" d="M66,45.8l4.7,13.4l5.6-14.3l5.3,14.3l5.2-13.4H89l-7.5,18.8l-5.2-14.3l-5.6,14.3l-6.8-18.8H66z"/>
		<path class="st2" d="M91.9,58.2c0-3.4,2.5-5.9,5.9-5.9s5.9,2.5,5.9,5.9c0,3.4-2.5,5.8-5.9,5.8C94.4,64,91.9,61.5,91.9,58.2z
			 M93.9,58.2c0,2.7,1.9,4.1,3.9,4.1c2,0,3.9-1.4,3.9-4.1c0-2.7-1.9-4.1-3.9-4.1S93.9,55.5,93.9,58.2z"/>
		<path class="st2" d="M109.3,52.6h1.9v1.2c0.6-0.9,1.6-1.4,2.8-1.4c2,0,2.8,1.4,3,1.8c1.1-1.7,2.6-1.8,3.3-1.8
			c3.3,0,3.6,2.8,3.6,4.3v7H122v-6.7c0-1.3-0.2-2.9-2-2.9c-2.2,0-2.5,2.1-2.5,3.5v6.2h-1.9v-6.6c0-0.8,0-3.1-2-3.1
			c-2.2,0-2.4,2.3-2.4,3.6v6h-1.9V52.6z"/>
		<path class="st2" d="M140.1,60.8c-0.3,0.6-0.8,1.3-1.4,1.8c-1,0.9-2.3,1.4-3.7,1.4c-2.7,0-5.5-1.7-5.5-5.8c0-3.3,2-5.9,5.4-5.9
			c2.2,0,3.5,1.1,4.2,2c0.7,1,1.1,2.7,1,4.2h-8.6c0,2.3,1.6,3.8,3.5,3.8c0.9,0,1.6-0.3,2.3-0.8c0.5-0.4,0.9-1,1.1-1.5L140.1,60.8z
			 M138.2,56.9c-0.3-1.7-1.6-2.9-3.3-2.9c-1.6,0-3,1.2-3.3,2.9H138.2z"/>
		<path class="st2" d="M145.8,52.6h1.9v1.3c0.3-0.5,1.3-1.6,3.2-1.6c1.3,0,2.5,0.5,3.2,1.5c0.6,0.8,0.6,1.7,0.6,3v6.9h-1.9v-6.8
			c0-0.7-0.1-1.4-0.5-2c-0.4-0.5-1-0.8-1.8-0.8c-0.7,0-1.4,0.2-2,0.9c-0.7,0.9-0.8,2.2-0.8,3v5.8h-1.9V52.6z"/>
		<path class="st2" d="M161.8,50.7l1.3,0.5l-1.9,4.2l-0.9-0.4L161.8,50.7z"/>
		<path class="st2" d="M172.5,55.1c-0.3-0.6-0.8-1.1-1.6-1.1c-0.7,0-1.3,0.4-1.3,1.3c0,0.8,0.5,1,1.8,1.6c1.6,0.7,2.4,1.2,2.8,1.7
			c0.5,0.6,0.6,1.2,0.6,1.8c0,2.3-1.7,3.6-3.8,3.6c-0.5,0-2.9-0.1-3.9-2.8l1.7-0.7c0.2,0.6,0.9,1.8,2.2,1.8c1.3,0,1.8-0.9,1.8-1.8
			c0-1-0.7-1.4-1.8-1.8c-1.3-0.6-2.2-1-2.7-1.6c-0.4-0.5-0.5-1.1-0.5-1.6c0-2,1.4-3.1,3.2-3.1c0.6,0,2.2,0.1,3,2L172.5,55.1z"/>
		<path class="st2" d="M199.2,58.7h-7.6l-2.1,5h-2.2l8.2-18.7l8,18.7h-2.2L199.2,58.7z M198.4,56.8l-3-7.1l-3,7.1H198.4z"/>
		<path class="st2" d="M216.7,44.2h1.9v19.5h-1.9v-1.6c-0.6,0.8-1.8,1.9-3.8,1.9c-2.8,0-5.4-2-5.4-5.9c0-3.8,2.6-5.8,5.4-5.8
			c2.1,0,3.3,1.2,3.8,1.8V44.2z M209.5,58.1c0,2.4,1.3,4.2,3.6,4.2c2.4,0,3.7-2,3.7-4.1c0-2.9-2-4.1-3.7-4.1
			C211.2,54,209.5,55.4,209.5,58.1z"/>
		<path class="st2" d="M225.5,52.6l3.3,7.5l3.3-7.5h2.1l-5.5,11.8l-5.5-11.8H225.5z"/>
		<path class="st2" d="M238.2,58.2c0-3.4,2.5-5.9,5.9-5.9c3.4,0,5.9,2.5,5.9,5.9c0,3.4-2.5,5.8-5.9,5.8
			C240.7,64,238.2,61.5,238.2,58.2z M240.2,58.2c0,2.7,1.9,4.1,3.9,4.1c2,0,3.9-1.4,3.9-4.1c0-2.7-1.9-4.1-3.9-4.1
			C242.1,54,240.2,55.5,240.2,58.2z"/>
		<path class="st2" d="M264.3,55.7c-1-1.3-2.5-1.7-3.5-1.7c-2.1,0-3.9,1.4-3.9,4.1s1.9,4.1,3.9,4.1c1.1,0,2.6-0.5,3.6-1.7v2.3
			c-1.2,0.9-2.5,1.1-3.5,1.1c-3.4,0-5.9-2.5-5.9-5.8c0-3.4,2.5-5.9,5.9-5.9c1.8,0,2.9,0.7,3.4,1.1V55.7z"/>
		<path class="st2" d="M278.5,52.6h1.9v11.1h-1.9v-1.6c-0.6,0.8-1.8,1.9-3.8,1.9c-2.8,0-5.4-2-5.4-5.9c0-3.8,2.6-5.8,5.4-5.8
			c2.1,0,3.3,1.2,3.8,1.8V52.6z M271.3,58.1c0,2.4,1.3,4.2,3.6,4.2c2.4,0,3.7-2,3.7-4.1c0-2.9-2-4.1-3.7-4.1
			C273,54,271.3,55.4,271.3,58.1z"/>
		<path class="st2" d="M288.7,54.3v9.3h-1.9v-9.3h-1.2v-1.8h1.2v-4h1.9v4h1.9v1.8H288.7z"/>
		<path class="st2" d="M305,60.8c-0.3,0.6-0.8,1.3-1.4,1.8c-1,0.9-2.3,1.4-3.7,1.4c-2.7,0-5.5-1.7-5.5-5.8c0-3.3,2-5.9,5.4-5.9
			c2.2,0,3.5,1.1,4.2,2c0.7,1,1.1,2.7,1,4.2h-8.6c0,2.3,1.6,3.8,3.5,3.8c0.9,0,1.6-0.3,2.3-0.8c0.5-0.4,0.9-1,1.1-1.5L305,60.8z
			 M303.1,56.9c-0.3-1.7-1.6-2.9-3.3-2.9s-3,1.2-3.3,2.9H303.1z"/>
		<path class="st2" d="M315.2,55.1c-0.3-0.6-0.8-1.1-1.6-1.1c-0.7,0-1.3,0.4-1.3,1.3c0,0.8,0.5,1,1.8,1.6c1.6,0.7,2.4,1.2,2.8,1.7
			c0.5,0.6,0.6,1.2,0.6,1.8c0,2.3-1.7,3.6-3.8,3.6c-0.5,0-2.9-0.1-3.9-2.8l1.7-0.7c0.2,0.6,0.9,1.8,2.2,1.8c1.3,0,1.8-0.9,1.8-1.8
			c0-1-0.7-1.4-1.8-1.8c-1.3-0.6-2.2-1-2.7-1.6c-0.4-0.5-0.5-1.1-0.5-1.6c0-2,1.4-3.1,3.2-3.1c0.6,0,2.2,0.1,3,2L315.2,55.1z"/>
	</g>
	<g>
		<path class="st2" d="M42.4,52c0,0,2-12.2,1.8-14.8c-0.3-4.2-6.7-4-6.6,0.5C37.7,40.3,42.4,52,42.4,52z"/>
		<g>
			<path class="st2" d="M18.3,51.5c8.4,0,16.5,1.9,20.4,3c-6.3,2-12.5,3-18.7,3c-8.5,0-14.7-1.9-17.5-3
				C6.9,52.5,12.2,51.5,18.3,51.5 M18.3,50.6c-6.1,0-12.5,1-17.8,3.9c0,0,7.4,3.9,19.6,3.9c6.1,0,13.4-1,21.6-3.9
				C41.7,54.5,30.5,50.6,18.3,50.6L18.3,50.6z"/>
			<path class="st2" d="M24,61.3c0,0-0.1,0-0.1,0c-8.1,0.2-12.1,13.6-12,13.6l0,0C26.3,72.7,35,63.8,39,58.5
				c-4.2,5.9-12.6,16.4-21.1,18.1C5.9,79,5.9,108,5.9,108c28.9-24.9,35.8-53.5,35.8-53.5S29.9,61,24,61.3z M13.1,73.8
				c1.2-3.3,5-11.4,10.8-11.6l0.1,0c0,0,0,0,0,0c0,0,0,0,0,0c4.2-0.2,11.2-3.4,15.1-5.4C35.8,61.6,27.4,71.1,13.1,73.8z M33.8,71.6
				c-4.7,9-13.1,22.1-27,34.4c0.1-2.7,0.4-7.6,1.5-12.6c1.3-6.6,4.1-14.7,9.8-15.9c8.3-1.7,16.3-11.1,20.8-17.3
				C37.8,63.2,36.1,67.1,33.8,71.6z"/>
			<path class="st2" d="M5.9,1c0,0-5.3,23.9,11,29.3c6.5,2.1,14.6,11.1,19.7,17.5c-4.9-5.6-13.3-13.2-25.4-17c0,0-0.2,13.6,6.8,14.5
				c9.7,1.2,23.7,9.3,23.7,9.3S34.8,25.9,5.9,1z M17.2,29.4c-6.4-2.1-10.1-7.5-11-15.9c-0.5-4.5,0-8.7,0.3-10.9
				c14.1,12.5,22.6,25.7,27.3,34.7c2.6,4.9,4.3,9.1,5.4,12.2C34.3,43.2,24.9,32,17.2,29.4z M33.8,49.5c-6.3-2.9-11.6-4.7-15.7-5.2
				c-2.5-0.3-4.2-2.6-5.3-6.9c-0.5-2.1-0.7-4.2-0.7-5.5c14,4.9,23,15,26.7,20C37.5,51.2,35.7,50.4,33.8,49.5z"/>
			<path class="st2" d="M44.4,69.2c-2.4-10.8-1.2-22.1,3-28.9c0.1-0.2,0.4-0.3,0.6-0.1c0.2,0.1,0.3,0.4,0.1,0.6
				c-4.1,6.6-5.5,16.4-3.2,27L44.4,69.2z"/>
			<circle class="st2" cx="48.8" cy="39.4" r="2.4"/>
		</g>
	</g>
</g>
</svg>
