<svg id="Layer_1" data-name="Layer 1" xmlns="http://www.w3.org/2000/svg" viewBox="0 0 225 18"><defs><style>.cls-1{fill:#d9d8d6;}</style></defs><title>Artboard 1</title><path class="cls-1" d="M2.35,1.4,6.51,13.24,11.45.61l4.68,12.63L20.73,1.4h1.94L16.05,18,11.45,5.38,6.51,18,.5,1.4Z"/><path class="cls-1" d="M25.23,12.36a5.06,5.06,0,0,1,5.21-5.21,5,5,0,0,1,5.21,5.21,5,5,0,0,1-5.21,5.12A5,5,0,0,1,25.23,12.36Zm1.77,0a3.45,3.45,0,1,0,6.89,0,3.45,3.45,0,1,0-6.89,0Z"/><path class="cls-1" d="M40.6,7.41h1.68V8.47a2.87,2.87,0,0,1,2.47-1.24A2.84,2.84,0,0,1,47.4,8.82a3.27,3.27,0,0,1,2.92-1.59c2.91,0,3.18,2.48,3.18,3.8v6.18H51.82V11.3c0-1.15-.18-2.56-1.77-2.56-1.94,0-2.21,1.85-2.21,3.09V17.3H46.17V11.47c0-.7,0-2.73-1.77-2.73-1.94,0-2.12,2-2.12,3.17v5.3H40.6Z"/><path class="cls-1" d="M67.81,14.65a5.25,5.25,0,0,1-1.24,1.59,4.82,4.82,0,0,1-3.27,1.24c-2.38,0-4.86-1.5-4.86-5.12,0-2.92,1.77-5.21,4.77-5.21a4.52,4.52,0,0,1,3.71,1.76,6.33,6.33,0,0,1,.89,3.71h-7.6A3.14,3.14,0,0,0,63.3,16a3.2,3.2,0,0,0,3-2Zm-1.68-3.44a3,3,0,0,0-2.92-2.56,3,3,0,0,0-2.91,2.56Z"/><path class="cls-1" d="M72.84,7.41h1.68V8.56a3.25,3.25,0,0,1,2.83-1.41,3.37,3.37,0,0,1,2.82,1.32,4.1,4.1,0,0,1,.53,2.65v6.09H79v-6a3.06,3.06,0,0,0-.44-1.77A1.93,1.93,0,0,0,77,8.74a2.16,2.16,0,0,0-1.76.79,4.43,4.43,0,0,0-.71,2.65V17.3H72.84Z"/><path class="cls-1" d="M87,5.73l1.15.44L86.44,9.88l-.79-.35Z"/><path class="cls-1" d="M96.42,9.62a1.54,1.54,0,0,0-1.41-1,1.06,1.06,0,0,0-1.15,1.14c0,.71.44.89,1.59,1.42a6.71,6.71,0,0,1,2.48,1.5,2.31,2.31,0,0,1,.53,1.59,3.11,3.11,0,0,1-3.36,3.18A3.62,3.62,0,0,1,91.65,15l1.51-.62A2.2,2.2,0,0,0,95.1,16a1.48,1.48,0,0,0,1.59-1.59c0-.89-.62-1.24-1.59-1.59a7.09,7.09,0,0,1-2.39-1.42A2.23,2.23,0,0,1,92.27,10,2.63,2.63,0,0,1,95.1,7.23,2.71,2.71,0,0,1,97.75,9Z"/><path class="cls-1" d="M120,12.8h-6.72l-1.85,4.41H109.5L116.74.7l7.07,16.51h-2Zm-.71-1.68-2.65-6.27L114,11.12Z"/><path class="cls-1" d="M135.47,0h1.67V17.21h-1.67V15.8a4.09,4.09,0,0,1-3.36,1.68c-2.47,0-4.77-1.77-4.77-5.21a4.73,4.73,0,0,1,4.77-5.12,4.31,4.31,0,0,1,3.36,1.59Zm-6.36,12.28c0,2.12,1.14,3.71,3.18,3.71a3.34,3.34,0,0,0,3.26-3.62,3.29,3.29,0,0,0-3.26-3.62C130.61,8.65,129.11,9.88,129.11,12.27Z"/><path class="cls-1" d="M143.24,7.41,146.15,14l2.92-6.62h1.85l-4.86,10.42L141.21,7.41Z"/><path class="cls-1" d="M154.46,12.36a5.21,5.21,0,0,1,10.42,0,5.21,5.21,0,0,1-10.42,0Zm1.76,0a3.45,3.45,0,1,0,6.89,0,3.38,3.38,0,0,0-3.44-3.62A3.33,3.33,0,0,0,156.22,12.36Z"/><path class="cls-1" d="M177.51,10.15a4,4,0,0,0-3.09-1.5A3.34,3.34,0,0,0,171,12.27a3.39,3.39,0,0,0,3.45,3.62,4.31,4.31,0,0,0,3.18-1.5v2a5.27,5.27,0,0,1-8.31-4.15,5.06,5.06,0,0,1,5.22-5.21,4.7,4.7,0,0,1,3,1Z"/><path class="cls-1" d="M190.05,7.41h1.68v9.8h-1.68V15.8a4.08,4.08,0,0,1-3.35,1.68c-2.48,0-4.77-1.77-4.77-5.21s2.29-5.12,4.77-5.12a4.26,4.26,0,0,1,3.35,1.59Zm-6.36,4.86c0,2.12,1.15,3.71,3.18,3.71a3.35,3.35,0,0,0,3.27-3.62,3.29,3.29,0,0,0-3.27-3.62C185.19,8.65,183.69,9.88,183.69,12.27Z"/><path class="cls-1" d="M199.06,8.91v8.22h-1.68V8.91h-1.06V7.32h1.06V3.79h1.68V7.32h1.68V8.91Z"/><path class="cls-1" d="M213.46,14.65a5.25,5.25,0,0,1-1.24,1.59A4.82,4.82,0,0,1,209,17.48c-2.38,0-4.85-1.5-4.85-5.12,0-2.92,1.76-5.21,4.77-5.21a4.54,4.54,0,0,1,3.71,1.76,6.32,6.32,0,0,1,.88,3.71h-7.6A3.15,3.15,0,0,0,209,16a3.36,3.36,0,0,0,2-.71A3.45,3.45,0,0,0,212,14Zm-1.68-3.44a2.94,2.94,0,0,0-5.83,0Z"/><path class="cls-1" d="M222.47,9.62a1.56,1.56,0,0,0-1.41-1,1.06,1.06,0,0,0-1.15,1.14c0,.71.44.89,1.59,1.42a6.64,6.64,0,0,1,2.47,1.5,2.31,2.31,0,0,1,.53,1.59,3.11,3.11,0,0,1-3.36,3.18A3.6,3.6,0,0,1,217.7,15l1.5-.62A2.23,2.23,0,0,0,221.14,16a1.48,1.48,0,0,0,1.59-1.59c0-.89-.61-1.24-1.59-1.59a7,7,0,0,1-2.38-1.42,2.23,2.23,0,0,1-.44-1.41,2.62,2.62,0,0,1,2.82-2.74A2.71,2.71,0,0,1,223.79,9Z"/></svg>